HIERARCHY
ROOT pelvis
{
  OFFSET 0 100 0
  CHANNELS 6 Xposition Yposition Zposition Zrotation Xrotation Yrotation
  JOINT pelvis_right_femur
  {
    OFFSET -10.78128 -3.44521 -0.5502486
    CHANNELS 3 Zrotation Xrotation Yrotation
    JOINT right_femur_tibia
    {
      OFFSET -0.8047443 -44.0398 -0.1307829
      CHANNELS 3 Zrotation Xrotation Yrotation
      JOINT right_tibia_foot
      {
        OFFSET 3.006224 -47.83518 -5
        CHANNELS 3 Zrotation Xrotation Yrotation
        End Site
        {
          OFFSET 0 -5 15
        }
      }
    }
  }
  JOINT pelvis_left_femur
  {
    OFFSET 10.78128 -3.44521 -0.5502486
    CHANNELS 3 Zrotation Xrotation Yrotation
    JOINT left_femur_tibia
    {
      OFFSET 0.8047443 -44.0398 -0.1307829
      CHANNELS 3 Zrotation Xrotation Yrotation
      JOINT left_tibia_foot
      {
        OFFSET -4.370144 -48.10324 -4.275266
        CHANNELS 3 Zrotation Xrotation Yrotation
        End Site
        {
          OFFSET 0 -5 15
        }
      }
    }
  }
  JOINT pelvis_spine1
  {
    OFFSET 0 6.468898 -3.129235
    CHANNELS 3 Zrotation Xrotation Yrotation
    JOINT spine1
    {
      OFFSET 0 23.15396 4.99043
      CHANNELS 3 Zrotation Xrotation Yrotation
      JOINT spine2
      {
        OFFSET 0 20.79997 -5.064912
        CHANNELS 3 Zrotation Xrotation Yrotation
        JOINT neck
        {
          OFFSET 0 14.38658 9.616178
          CHANNELS 3 Zrotation Xrotation Yrotation
          End Site
          {
            OFFSET 0 20 0
          }
        }
      }
      JOINT right_manubrium
      {
        OFFSET -5.722621 16.35077 3.967754
        CHANNELS 3 Zrotation Xrotation Yrotation
        JOINT right_clavicle
        {
          OFFSET -13.16364 1.694482 -4.693211
          CHANNELS 3 Zrotation Xrotation Yrotation
          JOINT right_humerus
          {
            OFFSET -28.5034 -0.3100689 -2.792744
            CHANNELS 3 Zrotation Xrotation Yrotation
            JOINT right_radius
            {
              OFFSET -25.15693 0.02248979 -1.271978
              CHANNELS 3 Zrotation Xrotation Yrotation
              End Site
              {
                OFFSET -15 0 0
              }
            }
          }
        }
      }
      JOINT left_manubrium
      {
        OFFSET 5.722621 16.35077 3.967754
        CHANNELS 3 Zrotation Xrotation Yrotation
        JOINT left_clavicle
        {
          OFFSET 13.16364 1.694482 -4.693211
          CHANNELS 3 Zrotation Xrotation Yrotation
          JOINT left_humerus
          {
            OFFSET 29.39168 -1.063119 -2.237045
            CHANNELS 3 Zrotation Xrotation Yrotation
            JOINT left_radius
            {
              OFFSET 24.59957 -0.9528479 0.9047498
              CHANNELS 3 Zrotation Xrotation Yrotation
              End Site
              {
                OFFSET 15 -0 -0
              }
            }
          }
        }
      }
    }
  }
}
MOTION
Frames: 13
Frame Time: 0.0416666666667
0 103.5113 0 1.245574 -2.844668 0.8933634 0.5685786 -15.23817 4.829357 -2.194983e-10 41.96867 1.536546e-10 -2.395476 -5.649482 -4.357395 -6.742518 8.81531 -16.73721 2.808737e-11 0.7556855 7.242291e-11 1.700134 -19.6685 20.86485 -3.769593 -1.371845 3.661973 1.032055 8.853825 -6.654718 1.606269 22.39465 6.896851 2.710827 -21.14752 9.126179 4.602539 -17.90364 10.26966 85.28906 32.1077 -15.96919 -1.346036e-11 -8.316076e-12 14.68855 -15.51994 10.47083 8.767565 5.638083 -18.58845 -2.802352 -89.26118 27.16833 17.26027 -3.215065e-12 -1.909461e-12 -16.81175 3.313289 13.05197 10.72182
0.6549965 103.2695 3.852282 1.293796 -2.641254 1.775534 0.5381237 -16.85896 4.828666 -2.491203e-10 42.62999 1.754276e-10 -2.389021 -5.404584 -4.491617 -6.898021 10.32661 -17.17712 2.458006e-11 -0.08660522 7.041331e-11 1.920113 -20.35261 20.96282 -3.882629 -1.411813 3.469785 1.130203 8.8044 -6.858884 1.583733 22.49666 7.045079 2.77906 -21.37482 9.278933 4.758226 -17.74743 10.28331 86.05514 32.41976 -16.73392 -1.501445e-11 -8.858605e-12 14.34238 -15.26794 10.4577 8.614424 5.763596 -18.81916 -2.792466 -89.44358 27.45038 16.83637 -3.9887e-12 -2.537311e-12 -17.45256 3.397516 13.20894 10.69487
1.323004 103.0276 7.66591 1.300238 -2.449601 2.681808 0.6245464 -18.70837 4.765035 -2.756799e-10 42.53266 1.940422e-10 -2.485606 -5.112694 -4.640114 -6.977888 12.00331 -17.45057 1.719388e-11 -0.1450594 6.314661e-11 2.039218 -20.90495 20.8705 -3.921969 -1.443756 3.253116 1.254711 8.780077 -7.095501 1.559676 22.54559 7.151653 2.833212 -21.55913 9.377543 4.847215 -17.5016 10.28707 86.78796 32.60837 -17.64807 -1.650083e-11 -9.152991e-12 13.77197 -14.95142 10.45084 8.35761 5.895374 -19.14748 -2.83054 -89.29114 27.59917 16.13742 -4.929993e-12 -3.324484e-12 -18.29974 3.600851 13.36535 10.4772
1.980206 102.7927 11.46159 1.265697 -2.282574 3.584014 0.8236775 -20.68408 4.646706 -2.967119e-10 41.66916 2.074031e-10 -2.681507 -4.789794 -4.793853 -6.98289 13.75069 -17.54163 6.425324e-12 0.5994871 5.109096e-11 2.045554 -21.29199 20.58736 -3.883977 -1.466128 3.02437 1.399065 8.782994 -7.351819 1.53572 22.5386 7.20974 2.869576 -21.68993 9.415351 4.863424 -17.17955 10.28139 87.44533 32.66065 -18.65879 -1.783013e-11 -9.171549e-12 13.00687 -14.58834 10.45018 8.010463 6.02571 -19.55724 -2.915221 -88.8132 27.59796 15.19958 -5.993816e-12 -4.220606e-12 -19.30875 3.914777 13.51125 10.07768
2.603722 102.5722 15.26694 1.19155 -2.154553 4.451711 1.137318 -22.71126 4.48349 -3.105844e-10 40.0364 2.14172e-10 -2.978876 -4.452884 -4.948111 -6.91736 15.49525 -17.44111 -7.161661e-12 2.192309 3.471105e-11 1.930743 -21.49095 20.12341 -3.765394 -1.478412 2.796661 1.559449 8.82231 -7.622214 1.513321 22.48735 7.216711 2.887756 -21.771 9.391755 4.803652 -16.80295 10.27494 88.05802 32.5705 -19.75264 -1.892282e-11 -8.892211e-12 12.07696 -14.20468 10.4626 7.588878 6.151337 -20.05037 -3.048455 -88.08285 27.43011 14.07825 -7.146277e-12 -5.18679e-12 -20.45784 4.337026 13.64605 9.505492
3.181852 102.3711 19.10075 1.093942 -2.069184 5.262411 1.513556 -24.56892 4.299223 -3.170014e-10 37.88559 2.146234e-10 -3.328877 -4.131995 -5.08265 -6.802422 17.05804 -17.17718 -2.135632e-11 4.333267 1.660376e-11 1.722144 -21.4949 19.53409 -3.587946 -1.480158 2.588833 1.716111 8.879797 -7.871574 1.494198 22.38358 7.173957 2.884489 -21.78347 9.309803 4.680967 -16.40185 10.25875 88.47602 32.36219 -20.7652 -1.969342e-11 -8.383379e-12 11.08777 -13.82635 10.47505 7.137294 6.255022 -20.54717 -3.20735 -87.13043 27.12071 12.88412 -8.260402e-12 -6.109573e-12 -21.59499 4.806272 13.74334 8.836098
3.708006 102.1933 22.98209 0.9827447 -2.025249 5.999737 1.931894 -26.24516 4.111329 -3.180033e-10 35.41501 2.106968e-10 -3.714203 -3.839584 -5.200785 -6.659493 18.43336 -16.80257 -3.524384e-11 6.861702 -2.073916e-12 1.450902 -21.3551 18.8833 -3.371027 -1.474852 2.407392 1.866674 8.959203 -8.102836 1.478411 22.26204 7.098533 2.86846 -21.75968 9.192463 4.516607 -16.01021 10.24704 88.8188 32.07481 -21.7205 -2.018065e-11 -7.715051e-12 10.09472 -13.4803 10.49622 6.684853 6.342217 -21.05041 -3.38457 -86.13133 26.70787 11.71132 -9.313992e-12 -6.966848e-12 -22.704 5.302144 13.81795 8.117526
4.190786 102.0378 26.93542 0.8793568 -2.042861 6.65541 2.352406 -27.49872 3.95179 -3.134313e-10 32.97207 2.031575e-10 -4.098619 -3.636117 -5.293566 -6.508135 19.407 -16.37401 -4.690699e-11 9.540001 -1.89176e-11 1.152692 -21.0964 18.2968 -3.142178 -1.464367 2.292434 1.993017 9.076283 -8.295803 1.469445 22.18674 7.008401 2.849607 -21.74169 9.070184 4.335976 -15.72444 10.26857 89.25357 31.74923 -22.57156 -2.02721e-11 -6.971546e-12 9.265794 -13.26 10.54985 6.316177 6.40927 -21.537 -3.565541 -85.43573 26.25993 10.81271 -1.0148e-11 -7.638268e-12 -23.66592 5.769289 13.88637 7.45861
4.648547 101.9028 30.98384 0.7978525 -2.13162 7.225024 2.745291 -28.1476 3.831336 -3.028177e-10 30.75251 1.923012e-10 -4.45427 -3.557207 -5.350963 -6.352459 19.82186 -15.91256 -5.529262e-11 12.2003 -3.254454e-11 0.8460567 -20.71692 17.83731 -2.916611 -1.448048 2.267357 2.080796 9.232284 -8.429079 1.469607 22.17713 6.908378 2.82953 -21.73576 8.952842 4.14978 -15.59176 10.3299 89.78424 31.40378 -23.23909 -1.988318e-11 -6.204744e-12 8.700537 -13.21146 10.6429 6.078556 6.448175 -21.9702 -3.738235 -85.16672 25.82138 10.31375 -1.064273e-11 -8.049593e-12 -24.38048 6.166496 13.94743 6.923429
5.105874 101.7854 35.14366 0.7474792 -2.295275 7.706276 3.083128 -28.02228 3.746705 -2.851762e-10 28.85235 1.7788e-10 -4.755421 -3.624318 -5.358948 -6.185533 19.53622 -15.41157 -5.976491e-11 14.70969 -4.207707e-11 0.5371987 -20.18757 17.52387 -2.701033 -1.423053 2.346129 2.115748 9.41629 -8.475429 1.480525 22.21723 6.792134 2.802805 -21.71736 8.833689 3.957803 -15.62581 10.42032 90.2741 31.0444 -23.60276 -1.892916e-11 -5.437915e-12 8.45846 -13.34951 10.76721 5.996366 6.445286 -22.2941 -3.890762 -85.28072 25.40585 10.25955 -1.0693e-11 -8.143582e-12 -24.74314 6.456914 13.98245 6.549109
5.580799 101.6856 39.45256 0.7170909 -2.567133 8.079666 3.425913 -27.07579 3.676029 -2.573683e-10 26.93054 1.575935e-10 -5.056518 -3.855174 -5.318962 -5.965694 18.47593 -14.77731 -6.121239e-11 17.53002 -4.937323e-11 0.169478 -19.40703 17.30645 -2.455992 -1.383845 2.546761 2.102403 9.663998 -8.440862 1.504815 22.31722 6.637827 2.764566 -21.68376 8.6911 3.724797 -15.83931 10.5573 90.82039 30.60762 -23.7243 -1.722187e-11 -4.525174e-12 8.505423 -13.70708 10.94722 6.060703 6.399352 -22.56633 -4.051197 -85.80788 24.93779 10.6482 -1.029061e-11 -7.93301e-12 -24.81124 6.690844 13.99965 6.271928
6.08028 101.6102 43.95397 0.6902347 -2.962482 8.309746 3.818356 -25.27048 3.581317 -2.172323e-10 24.58227 1.299875e-10 -5.395566 -4.24053 -5.222338 -5.6385 16.59534 -13.89164 -6.03504e-11 21.03057 -5.633796e-11 -0.3124121 -18.24724 17.08105 -2.139449 -1.321931 2.867375 2.041859 9.977075 -8.314932 1.543242 22.41853 6.409084 2.698335 -21.574 8.47918 3.405947 -16.18389 10.72087 91.21939 30.02458 -23.55337 -1.460727e-11 -3.315849e-12 8.755417 -14.25411 11.17162 6.228205 6.296265 -22.78467 -4.237942 -86.47342 24.3098 11.34839 -9.444509e-12 -7.438487e-12 -24.60103 6.906244 13.96735 6.004423
6.603698 101.57 48.70056 0.6558315 -3.493941 8.353101 4.291749 -22.61562 3.442205 -1.650283e-10 21.62651 9.588121e-11 -5.799108 -4.781855 -5.072482 -5.157953 13.89251 -12.70638 -5.735649e-11 25.43358 -6.423814e-11 -0.9292052 -16.66189 16.82554 -1.73222 -1.23337 3.310952 1.937332 10.36906 -8.102402 1.596669 22.51949 6.094983 2.602028 -21.38316 8.186432 2.984164 -16.65575 10.91454 91.5066 29.26509 -23.12734 -1.102422e-11 -1.724186e-12 9.175894 -14.99578 11.44673 6.487794 6.135807 -22.97697 -4.464881 -87.25303 23.47751 12.3275 -8.175142e-12 -6.669022e-12 -24.15118 7.130557 13.88673 5.708219
